<?xml version="1.0" encoding="utf-8"?>
<!-- Generator: Adobe Illustrator 19.2.1, SVG Export Plug-In . SVG Version: 6.00 Build 0)  -->
<svg version="1.1" id="layer" xmlns="http://www.w3.org/2000/svg" xmlns:xlink="http://www.w3.org/1999/xlink" x="0px" y="0px"
	 viewBox="0 0 652 652" style="enable-background:new 0 0 652 652;" xml:space="preserve">
<style type="text/css">
	.st0{fill:#FFFFFF;}
	.st1{fill:#AEE1F3;}
	.st2{fill:#263746;}
	.st3{fill:#2E7BBF;}
	.st4{fill:#00B3E3;}
</style>
<polygon class="st0" points="55,268.9 55,303.6 20.3,303.6 20.3,373 89.7,373 89.7,338.3 124.4,338.3 124.4,268.9 "/>
<path class="st1" d="M20.3,303.6v34.7V303.6z M20.3,303.6H55H20.3z"/>
<polygon class="st0" points="20.3,303.6 20.3,338.3 55,338.3 55,373 89.7,373 89.7,338.3 55,338.3 55,303.6 "/>
<polygon class="st1" points="20.3,303.6 20.3,338.3 55,338.3 55,373 89.7,373 89.7,338.3 55,338.3 55,303.6 "/>
<g>
	<path class="st2" d="M143.9,358.6l15.1-11.9c4.3,7.4,11.1,11.6,18.8,11.6c8.4,0,13-5.5,13-11.4c0-7.1-8.7-9.4-17.9-12.2
		c-11.6-3.6-24.6-8.1-24.6-24.7c0-13.9,12.1-25,28.9-25c14.1,0,22.2,5.3,29.2,12.6L192.6,308c-3.6-5.3-8.7-8.2-15.5-8.2
		c-7.7,0-11.9,4.2-11.9,9.6c0,6.7,8.3,8.9,17.6,12c11.8,3.8,25.1,9,25.1,25.7c0,13.8-10.9,27.1-30.1,27.1
		C162.2,374.2,151.7,367.5,143.9,358.6 M276.8,313.6H293v6.7c3.8-4.9,9.6-7.8,16.4-7.8c14,0,22.5,9,22.5,24.4V373h-16.5v-34.1
		c0-8-3.7-12.6-10.9-12.6c-6.2,0-11.3,4.3-11.3,14.3V373h-16.3V313.6z M335.6,343.3c0-21,15.4-30.9,28.9-30.9c7.7,0,13.8,2.9,17.7,7
		v-33.2h16.3V373h-16.3v-6.7c-3.9,4.6-10.2,7.8-17.9,7.8C351.7,374.2,335.6,364.2,335.6,343.3 M382.7,343.2
		c0-8.8-6.4-15.9-15.2-15.9c-9,0-15.9,6.8-15.9,15.9c0,9.1,6.9,16,15.9,16C376.3,359.2,382.7,352,382.7,343.2 M402.3,329.6
		c0-24.7,18.7-44.6,44.3-44.6c12.8,0,23.6,4.6,31.5,12c3.2,3,5.9,6.5,8,10.2l-14.5,8.8c-5.3-9.9-13.5-15-24.8-15
		c-15.8,0-28.1,13-28.1,28.5c0,15.9,12,28.5,28.6,28.5c12.6,0,21.5-7.1,24.6-18.2h-27.2v-15.8h45v6.7c0,23.3-16.6,43.4-42.4,43.4
		C420.3,374.2,402.3,353.6,402.3,329.6 M493.9,313.6h16.2v9.7c3-6.2,8.3-9.7,16.4-9.7h6.5l-5.9,15.8h-4.4c-8.7,0-12.5,4.5-12.5,15.6
		V373h-16.3V313.6z M537.3,313.6h16.3V373h-16.3v-43.6h-5.9L537.3,313.6z M545.4,304.5c5.4,0,9.7-4.4,9.7-9.7s-4.4-9.7-9.7-9.7
		c-5.4,0-9.7,4.4-9.7,9.7S540.1,304.5,545.4,304.5 M557.4,343.3c0-21,15.4-30.9,28.9-30.9c7.7,0,13.8,2.9,17.7,7v-33.2h16.3V373H604
		v-6.7c-3.9,4.6-10.2,7.8-17.9,7.8C573.4,374.2,557.4,364.2,557.4,343.3 M604.5,343.2c0-8.8-6.4-15.9-15.2-15.9
		c-9,0-15.9,6.8-15.9,15.9c0,9.1,6.9,16,15.9,16C598.1,359.2,604.5,352,604.5,343.2 M273,343.2c0-17.1-12.5-30.8-30.7-30.8
		c-17.1,0-30.9,13.8-30.9,30.9c0,17.1,12.8,30.9,31.4,30.9c12.8,0,22.1-6.2,27.3-15.1l-12.9-7.7c-2.7,5.3-8,8.5-14.2,8.5
		c-8.6,0-13.9-4.3-15.8-10.8H273V343.2z M227.8,336c2.5-5.6,7.7-9.4,14.6-9.4c6.9,0,12,3.2,14.1,9.4H227.8z"/>
	<rect x="20.3" y="338.3" class="st3" width="34.7" height="34.7"/>
	<path class="st4" d="M89.7,268.9H55H89.7z M124.4,338.3L124.4,338.3v-34.7V338.3"/>
	<polygon class="st0" points="124.4,338.3 89.7,338.3 89.7,303.6 55,303.6 55,268.9 89.7,268.9 89.7,303.6 124.4,303.6 	"/>
	<polygon class="st4" points="124.4,338.3 89.7,338.3 89.7,303.6 55,303.6 55,268.9 89.7,268.9 89.7,303.6 124.4,303.6 	"/>
	<rect x="55" y="303.6" class="st0" width="34.7" height="34.7"/>
	<rect x="55" y="303.6" class="st4" width="34.7" height="34.7"/>
	<rect x="89.7" y="268.9" class="st3" width="34.7" height="34.7"/>
</g>
</svg>
