<svg width="127" height="29" viewBox="0 0 127 29" fill="none" xmlns="http://www.w3.org/2000/svg">
    <path d="M30.5064 6.72727V22H33.1612V11.4851H33.3029L37.5238 21.9553H39.5075L43.7283 11.5075H43.87V22H46.5249V6.72727H43.1392L38.6051 17.794H38.4261L33.892 6.72727H30.5064ZM52.7145 22.2312C54.5117 22.2312 55.5856 21.3885 56.0778 20.4265H56.1673V22H58.7624V14.3338C58.7624 11.3061 56.294 10.3963 54.109 10.3963C51.7003 10.3963 49.8509 11.4702 49.2543 13.5582L51.7749 13.9162C52.0433 13.1332 52.804 12.462 54.1239 12.462C55.3768 12.462 56.0629 13.1033 56.0629 14.2294V14.2741C56.0629 15.0497 55.25 15.087 53.229 15.3033C51.0067 15.5419 48.8814 16.2056 48.8814 18.7859C48.8814 21.038 50.5295 22.2312 52.7145 22.2312ZM53.4155 20.2475C52.2894 20.2475 51.484 19.733 51.484 18.7411C51.484 17.7045 52.3864 17.272 53.5945 17.1005C54.3029 17.0036 55.7198 16.8246 56.0703 16.5412V17.891C56.0703 19.1662 55.0412 20.2475 53.4155 20.2475ZM61.4769 22H64.1765V10.5455H61.4769V22ZM62.8342 8.91974C63.6918 8.91974 64.3928 8.26349 64.3928 7.4581C64.3928 6.64524 63.6918 5.98899 62.8342 5.98899C61.9691 5.98899 61.2681 6.64524 61.2681 7.4581C61.2681 8.26349 61.9691 8.91974 62.8342 8.91974ZM69.6521 6.72727H66.9525V22H69.6521V6.72727Z" fill="white"/>
    <path d="M72.4281 22H75.1277V15.0348C75.1277 13.6254 76.0673 12.6708 77.2306 12.6708C78.3716 12.6708 79.1547 13.4389 79.1547 14.6172V22H81.802V14.8558C81.802 13.5657 82.5701 12.6708 83.8752 12.6708C84.964 12.6708 85.829 13.3121 85.829 14.729V22H88.536V14.3114C88.536 11.7536 87.0595 10.3963 84.9565 10.3963C83.2935 10.3963 82.0257 11.2166 81.5186 12.4918H81.3993C80.9593 11.1942 79.8482 10.3963 78.3045 10.3963C76.7683 10.3963 75.6199 11.1868 75.1426 12.4918H75.0083V10.5455H72.4281V22ZM96.3458 22.2237C99.0155 22.2237 100.85 20.9187 101.327 18.9276L98.8067 18.6442C98.4413 19.6136 97.5464 20.1207 96.3831 20.1207C94.6381 20.1207 93.4822 18.9723 93.4598 17.011H101.439V16.1832C101.439 12.1637 99.023 10.3963 96.2041 10.3963C92.9229 10.3963 90.7826 12.805 90.7826 16.3398C90.7826 19.9343 92.893 22.2237 96.3458 22.2237ZM93.4672 15.1914C93.5493 13.7298 94.6306 12.4993 96.2414 12.4993C97.7925 12.4993 98.8366 13.6328 98.8515 15.1914H93.4672ZM112.776 13.5732C112.403 11.6342 110.852 10.3963 108.168 10.3963C105.408 10.3963 103.529 11.7536 103.537 13.8714C103.529 15.5419 104.558 16.6456 106.758 17.1005L108.712 17.5107C109.763 17.7418 110.256 18.1669 110.256 18.8157C110.256 19.5987 109.406 20.1879 108.123 20.1879C106.885 20.1879 106.08 19.6509 105.848 18.6218L103.216 18.8754C103.551 20.9783 105.319 22.2237 108.13 22.2237C110.994 22.2237 113.015 20.7397 113.022 18.5696C113.015 16.9364 111.963 15.9371 109.801 15.4673L107.847 15.0497C106.684 14.7887 106.221 14.386 106.229 13.7223C106.221 12.9467 107.079 12.4098 108.205 12.4098C109.45 12.4098 110.107 13.0884 110.315 13.8416L112.776 13.5732ZM117.948 15.2884C117.948 13.6328 118.977 12.6783 120.424 12.6783C121.841 12.6783 122.676 13.5806 122.676 15.1243V22H125.376V14.7067C125.376 11.94 123.809 10.3963 121.431 10.3963C119.671 10.3963 118.552 11.1942 118.023 12.4918H117.888V6.72727H115.248V22H117.948V15.2884Z" fill="#95FFB3"/>
    <path d="M12 20C12.5128 20 12.9355 20.386 12.9933 20.8834L13 21V24C13 24.5523 12.5523 25 12 25C11.4872 25 11.0645 24.614 11.0067 24.1166L11 24V21C11 20.4477 11.4477 20 12 20ZM8 21C8.51284 21 8.93551 21.386 8.99327 21.8834L9 22V23C9 23.5523 8.55228 24 8 24C7.48716 24 7.06449 23.614 7.00673 23.1166L7 23V22C7 21.4477 7.44772 21 8 21ZM16 21C16.5128 21 16.9355 21.386 16.9933 21.8834L17 22V23C17 23.5523 16.5523 24 16 24C15.4872 24 15.0645 23.614 15.0067 23.1166L15 23V22C15 21.4477 15.4477 21 16 21ZM10.6132 3.72261C11.453 3.16278 12.547 3.16278 13.3868 3.72258L14.1017 4.19924C16.9425 6.09312 18.7302 9.18867 18.9719 12.565L21.7196 15.4143C21.8695 15.5696 21.9643 15.7684 21.9917 15.9803L22 16.1087V18.5C22 19.0128 21.614 19.4355 21.1166 19.4933L21 19.5H3C2.48716 19.5 2.06449 19.114 2.00673 18.6166L2 18.5V16.1087C2 15.8928 2.06981 15.684 2.19719 15.5125L2.28042 15.4143L5.02811 12.565C5.2698 9.18866 7.05747 6.09312 9.8983 4.19924L10.6132 3.72261ZM5 15.4757L4 16.512V17.5L5 17.4997V15.4757ZM12.2774 5.38673C12.1094 5.27474 11.8906 5.27474 11.7226 5.38671L11.0077 5.86334C8.5039 7.53253 7 10.3426 7 13.3518V17.5H17V13.3518C17 10.4429 15.5947 7.72009 13.2393 6.03401L12.9923 5.86332L12.2774 5.38673ZM19 15.4767V17.4997L20 17.5V16.513L19 15.4767ZM12 8C14.2092 8 16 9.79085 16 12C16 14.2092 14.2092 16 12 16C9.79085 16 8 14.2092 8 12C8 9.79086 9.79086 8 12 8ZM12 10C10.8954 10 10 10.8954 10 12C10 13.1046 10.8954 14 12 14C13.1046 14 14 13.1046 14 12C14 10.8954 13.1046 10 12 10Z" fill="#95FFB3"/>
    <path opacity="0.5" d="M12 10C10.8954 10 10 10.8954 10 12C10 13.1046 10.8954 14 12 14C13.1046 14 14 13.1046 14 12C14 10.8954 13.1046 10 12 10Z" fill="#95FFB3"/>
</svg>